<svg width="1000" height="1000" viewBox="0 0 1000 1000" fill="none" xmlns="http://www.w3.org/2000/svg">
<path d="M909.417 390.333L875 166.667C625 166.667 500 41.6666 500 41.6666C500 41.6666 375 166.667 125 166.667L90.5833 390.333C76.231 483.499 90.9541 578.825 132.746 663.319C174.539 747.813 241.367 817.366 324.125 862.5L500 958.333L675.875 862.5C758.633 817.366 825.461 747.813 867.254 663.319C909.046 578.825 923.769 483.499 909.417 390.333ZM696.125 404.458L446.125 654.458C438.311 662.27 427.715 666.658 416.667 666.658C405.618 666.658 395.022 662.27 387.208 654.458L303.875 571.125C299.895 567.281 296.721 562.684 294.537 557.6C292.354 552.517 291.204 547.049 291.156 541.517C291.108 535.984 292.162 530.498 294.257 525.377C296.352 520.256 299.446 515.604 303.359 511.692C307.271 507.78 311.923 504.686 317.044 502.591C322.164 500.496 327.651 499.441 333.183 499.489C338.716 499.538 344.183 500.687 349.267 502.871C354.35 505.054 358.948 508.229 362.792 512.208L416.667 566.083L637.208 345.542C645.067 337.952 655.592 333.752 666.517 333.847C677.442 333.942 687.892 338.324 695.617 346.049C703.343 353.775 707.725 364.225 707.82 375.15C707.915 386.075 703.715 396.6 696.125 404.458Z" fill="#2563EB"/>
</svg>
